<?xml version="1.0" standalone="no"?><!-- Generator: Gravit.io --><svg xmlns="http://www.w3.org/2000/svg" xmlns:xlink="http://www.w3.org/1999/xlink" style="isolation:isolate" viewBox="0 0 900 900" width="900" height="900"><path d=" M 0 450.00000000000006 C 0 201.638241 201.63824099999982 5.684341886080802e-14 449.99999999999994 0 C 698.361759 0 900 201.63824099999982 900 449.9999999999999 C 900.0000000000001 698.3617589999999 698.3617590000001 899.9999999999999 450.0000000000001 900 C 201.63824100000008 900.0000000000001 0 698.3617590000001 0 450.00000000000006 Z " fill="rgb(251,251,251)"/><path d=" M 177.722286 449.14289700000006 C 177.722286 299.3417850515228 299.3417850515227 177.72228600000005 449.14289699999995 177.722286 C 598.9440089484772 177.722286 720.563508 299.3417850515227 720.563508 449.14289699999995 C 720.5635080000001 598.9440089484772 598.9440089484773 720.563508 449.14289700000006 720.563508 C 299.34178505152283 720.5635080000001 177.722286 598.9440089484773 177.722286 449.14289700000006 Z " fill="none"/><g style="isolation: isolate;"><path d=" M 177.722286 449.14289700000006 C 177.722286 299.3417850515228 299.3417850515227 177.72228600000005 449.14289699999995 177.722286 C 598.9440089484772 177.722286 720.563508 299.3417850515227 720.563508 449.14289699999995 C 720.5635080000001 598.9440089484772 598.9440089484773 720.563508 449.14289700000006 720.563508 C 299.34178505152283 720.5635080000001 177.722286 598.9440089484773 177.722286 449.14289700000006 Z " fill="none" vector-effect="non-scaling-stroke" stroke-width="22.68" stroke="rgb(66,66,66)" stroke-linejoin="miter" stroke-linecap="butt" stroke-miterlimit="4"/></g><path d=" M 594.4425160000001 450.5 L 732.627331 312.31518500000004 L 588.6848150000001 168.37266909 L 450.5 306.557484 L 312.31518500000004 168.37266909 L 168.37266909 312.31518500000004 L 306.557484 450.5 L 168.37266909 588.6848150000001 L 312.31518500000004 732.627331 L 450.5 594.4425160000001 L 588.6848150000001 732.627331 L 732.627331 588.6848150000001 L 594.4425160000001 450.5 Z " fill-rule="evenodd" fill="rgb(251,251,251)"/><path d=" M 381.2877443 449.142897 C 381.2877443 411.6926190404764 411.6926190404764 381.2877443 449.142897 381.2877443 C 486.59317495952354 381.2877443 516.9980497 411.6926190404764 516.9980497 449.142897 C 516.9980497 486.59317495952354 486.5931749595236 516.9980497 449.142897 516.9980497 C 411.6926190404765 516.9980497 381.2877443 486.5931749595236 381.2877443 449.142897 Z " fill="none"/><g style="isolation: isolate;"><path d=" M 381.2877443 449.142897 C 381.2877443 411.6926190404764 411.6926190404764 381.2877443 449.142897 381.2877443 C 486.59317495952354 381.2877443 516.9980497 411.6926190404764 516.9980497 449.142897 C 516.9980497 486.59317495952354 486.5931749595236 516.9980497 449.142897 516.9980497 C 411.6926190404765 516.9980497 381.2877443 486.5931749595236 381.2877443 449.142897 Z " fill="none" vector-effect="non-scaling-stroke" stroke-width="22.68" stroke="rgb(66,66,66)" stroke-linejoin="miter" stroke-linecap="butt" stroke-miterlimit="4"/></g><path d=" M 196 264.8551527 C 196 227.40487474047646 226.40487474047643 197.00000000000003 263.8551527 197 C 301.30543065952355 197 331.71030540000004 227.40487474047643 331.71030540000004 264.8551527 C 331.71030540000004 302.30543065952355 301.3054306595236 332.71030540000004 263.8551527 332.71030540000004 C 226.4048747404765 332.71030540000004 196 302.3054306595236 196 264.8551527 Z " fill="rgb(66,66,66)"/><path d=" M 196.7361229 633.0051100000001 C 196.7361229 595.5548320404765 227.14099764047643 565.1499573000001 264.5912756 565.1499573000001 C 302.04155355952355 565.1499573000001 332.4464283 595.5548320404765 332.44642830000004 633.0051100000001 C 332.44642830000004 670.4553879595236 302.0415535595236 700.8602627 264.5912756 700.8602627 C 227.14099764047648 700.8602627 196.7361229 670.4553879595236 196.7361229 633.0051100000001 Z " fill="rgb(66,66,66)"/><path d=" M 565.5660533 633.0051100000001 C 565.5660533 595.5548320404765 595.9709280404765 565.1499573000001 633.421206 565.1499573000001 C 670.8714839595235 565.1499573000001 701.2763587 595.5548320404765 701.2763587 633.0051100000001 C 701.2763587 670.4553879595236 670.8714839595235 700.8602627 633.421206 700.8602627 C 595.9709280404765 700.8602627 565.5660533 670.4553879595236 565.5660533 633.0051100000001 Z " fill="rgb(66,66,66)"/><path d=" M 565.5660533 264.5912756 C 565.5660533 227.14099764047646 595.9709280404765 196.73612290000003 633.421206 196.7361229 C 670.8714839595235 196.7361229 701.2763587 227.14099764047643 701.2763587 264.5912756 C 701.2763587 302.04155355952355 670.8714839595235 332.4464283 633.421206 332.44642830000004 C 595.9709280404765 332.44642830000004 565.5660533 302.0415535595236 565.5660533 264.5912756 Z " fill="rgb(66,66,66)"/></svg>